<svg xmlns="http://www.w3.org/2000/svg" xmlns:xlink="http://www.w3.org/1999/xlink" width="250" zoomAndPan="magnify" viewBox="0 0 187.5 74.999997" height="100" preserveAspectRatio="xMidYMid meet" version="1.0"><defs><g/></defs><g fill="#ffffff" fill-opacity="1"><g transform="translate(-0.569003, 62.533242)"><g><path d="M 15.953125 0.65625 C 12.085938 0.65625 8.878906 -0.0703125 6.328125 -1.53125 C 3.773438 -3 1.914062 -4.972656 0.75 -7.453125 L 5.828125 -13.625 L 6.609375 -13.625 C 7.441406 -11.625 8.617188 -10.046875 10.140625 -8.890625 C 11.671875 -7.742188 13.441406 -7.171875 15.453125 -7.171875 C 17.722656 -7.171875 19.40625 -7.828125 20.5 -9.140625 C 21.601562 -10.460938 22.15625 -12.609375 22.15625 -15.578125 L 22.15625 -45.5625 L 31.140625 -45.5625 L 31.140625 -15.421875 C 31.140625 -9.921875 29.882812 -5.863281 27.375 -3.25 C 24.875 -0.644531 21.066406 0.65625 15.953125 0.65625 Z M 15.953125 0.65625 "/></g></g></g><g fill="#ffffff" fill-opacity="1"><g transform="translate(36.205679, 62.533242)"><g><path d="M 13.40625 0.65625 C 11.195312 0.65625 9.28125 0.25 7.65625 -0.5625 C 6.039062 -1.375 4.796875 -2.5625 3.921875 -4.125 C 3.054688 -5.695312 2.625 -7.582031 2.625 -9.78125 C 2.625 -11.820312 3.054688 -13.53125 3.921875 -14.90625 C 4.796875 -16.289062 6.144531 -17.425781 7.96875 -18.3125 C 9.800781 -19.195312 12.191406 -19.875 15.140625 -20.34375 C 17.203125 -20.675781 18.765625 -21.039062 19.828125 -21.4375 C 20.898438 -21.832031 21.625 -22.28125 22 -22.78125 C 22.375 -23.28125 22.5625 -23.914062 22.5625 -24.6875 C 22.5625 -25.78125 22.175781 -26.617188 21.40625 -27.203125 C 20.644531 -27.785156 19.367188 -28.078125 17.578125 -28.078125 C 15.660156 -28.078125 13.835938 -27.648438 12.109375 -26.796875 C 10.390625 -25.953125 8.898438 -24.832031 7.640625 -23.4375 L 7.015625 -23.4375 L 3.390625 -28.890625 C 5.140625 -30.828125 7.269531 -32.332031 9.78125 -33.40625 C 12.300781 -34.488281 15.046875 -35.03125 18.015625 -35.03125 C 22.566406 -35.03125 25.859375 -34.0625 27.890625 -32.125 C 29.929688 -30.195312 30.953125 -27.457031 30.953125 -23.90625 L 30.953125 -8.96875 C 30.953125 -7.4375 31.625 -6.671875 32.96875 -6.671875 C 33.488281 -6.671875 34 -6.765625 34.5 -6.953125 L 34.9375 -6.828125 L 35.5625 -0.8125 C 35.082031 -0.5 34.414062 -0.242188 33.5625 -0.046875 C 32.707031 0.148438 31.773438 0.25 30.765625 0.25 C 28.703125 0.25 27.09375 -0.144531 25.9375 -0.9375 C 24.789062 -1.726562 23.96875 -2.960938 23.46875 -4.640625 L 22.8125 -4.703125 C 21.132812 -1.128906 18 0.65625 13.40625 0.65625 Z M 16.140625 -5.796875 C 18.140625 -5.796875 19.734375 -6.460938 20.921875 -7.796875 C 22.117188 -9.140625 22.71875 -11.007812 22.71875 -13.40625 L 22.71875 -16.890625 L 22.125 -17.015625 C 21.601562 -16.597656 20.921875 -16.25 20.078125 -15.96875 C 19.242188 -15.6875 18.035156 -15.410156 16.453125 -15.140625 C 14.585938 -14.828125 13.242188 -14.289062 12.421875 -13.53125 C 11.597656 -12.78125 11.1875 -11.707031 11.1875 -10.3125 C 11.1875 -8.84375 11.625 -7.722656 12.5 -6.953125 C 13.375 -6.179688 14.585938 -5.796875 16.140625 -5.796875 Z M 16.140625 -5.796875 "/></g></g></g><g fill="#ffffff" fill-opacity="1"><g transform="translate(72.450562, 62.533242)"><g><path d="M 4.953125 0 L 4.953125 -48.1875 L 13.59375 -48.1875 L 13.59375 -21.4375 L 14.4375 -21.4375 L 24.375 -34.375 L 33.125 -34.375 L 33.125 -33.65625 L 21.4375 -18.578125 L 34.4375 -0.78125 L 34.4375 0 L 25.34375 0 L 14.4375 -14.5 L 13.59375 -14.5 L 13.59375 0 Z M 4.953125 0 "/></g></g></g><g fill="#ffffff" fill-opacity="1"><g transform="translate(106.420384, 62.533242)"><g><path d="M 19.984375 0.65625 C 16.609375 0.65625 13.648438 -0.03125 11.109375 -1.40625 C 8.566406 -2.789062 6.59375 -4.816406 5.1875 -7.484375 C 3.78125 -10.160156 3.078125 -13.390625 3.078125 -17.171875 C 3.078125 -20.953125 3.78125 -24.179688 5.1875 -26.859375 C 6.59375 -29.546875 8.566406 -31.578125 11.109375 -32.953125 C 13.648438 -34.335938 16.609375 -35.03125 19.984375 -35.03125 C 23.347656 -35.03125 26.300781 -34.335938 28.84375 -32.953125 C 31.382812 -31.578125 33.363281 -29.546875 34.78125 -26.859375 C 36.195312 -24.179688 36.90625 -20.953125 36.90625 -17.171875 C 36.90625 -13.390625 36.195312 -10.160156 34.78125 -7.484375 C 33.363281 -4.816406 31.382812 -2.789062 28.84375 -1.40625 C 26.300781 -0.03125 23.347656 0.65625 19.984375 0.65625 Z M 19.984375 -6.671875 C 25.316406 -6.671875 27.984375 -10.171875 27.984375 -17.171875 C 27.984375 -20.804688 27.296875 -23.46875 25.921875 -25.15625 C 24.554688 -26.851562 22.578125 -27.703125 19.984375 -27.703125 C 14.640625 -27.703125 11.96875 -24.191406 11.96875 -17.171875 C 11.96875 -10.171875 14.640625 -6.671875 19.984375 -6.671875 Z M 19.984375 -6.671875 "/></g></g></g><g fill="#ffffff" fill-opacity="1"><g transform="translate(146.373894, 62.533242)"><g><path d="M 24.03125 0.65625 C 19.644531 0.65625 16.382812 -0.984375 14.25 -4.265625 L 13.59375 -4.140625 L 13.59375 0 L 4.953125 0 L 4.953125 -48.1875 L 13.59375 -48.1875 L 13.59375 -30.328125 L 14.25 -30.203125 C 15.425781 -31.835938 16.816406 -33.050781 18.421875 -33.84375 C 20.035156 -34.632812 21.96875 -35.03125 24.21875 -35.03125 C 27 -35.03125 29.425781 -34.375 31.5 -33.0625 C 33.582031 -31.757812 35.203125 -29.769531 36.359375 -27.09375 C 37.523438 -24.425781 38.109375 -21.117188 38.109375 -17.171875 C 38.109375 -13.265625 37.503906 -9.972656 36.296875 -7.296875 C 35.097656 -4.628906 33.4375 -2.632812 31.3125 -1.3125 C 29.195312 0 26.769531 0.65625 24.03125 0.65625 Z M 21.40625 -6.671875 C 23.945312 -6.671875 25.878906 -7.515625 27.203125 -9.203125 C 28.535156 -10.898438 29.203125 -13.554688 29.203125 -17.171875 C 29.203125 -20.804688 28.535156 -23.46875 27.203125 -25.15625 C 25.878906 -26.851562 23.945312 -27.703125 21.40625 -27.703125 C 18.976562 -27.703125 17.050781 -26.828125 15.625 -25.078125 C 14.207031 -23.335938 13.5 -20.703125 13.5 -17.171875 C 13.5 -13.640625 14.207031 -11.003906 15.625 -9.265625 C 17.050781 -7.535156 18.976562 -6.671875 21.40625 -6.671875 Z M 21.40625 -6.671875 "/></g></g></g><g fill="#8c52ff" fill-opacity="1"><g transform="translate(146.50889, 62.533242)"><g><path d="M 24.03125 0.65625 C 19.644531 0.65625 16.382812 -0.984375 14.25 -4.265625 L 13.59375 -4.140625 L 13.59375 0 L 4.953125 0 L 4.953125 -48.1875 L 13.59375 -48.1875 L 13.59375 -30.328125 L 14.25 -30.203125 C 15.425781 -31.835938 16.816406 -33.050781 18.421875 -33.84375 C 20.035156 -34.632812 21.96875 -35.03125 24.21875 -35.03125 C 27 -35.03125 29.425781 -34.375 31.5 -33.0625 C 33.582031 -31.757812 35.203125 -29.769531 36.359375 -27.09375 C 37.523438 -24.425781 38.109375 -21.117188 38.109375 -17.171875 C 38.109375 -13.265625 37.503906 -9.972656 36.296875 -7.296875 C 35.097656 -4.628906 33.4375 -2.632812 31.3125 -1.3125 C 29.195312 0 26.769531 0.65625 24.03125 0.65625 Z M 21.40625 -6.671875 C 23.945312 -6.671875 25.878906 -7.515625 27.203125 -9.203125 C 28.535156 -10.898438 29.203125 -13.554688 29.203125 -17.171875 C 29.203125 -20.804688 28.535156 -23.46875 27.203125 -25.15625 C 25.878906 -26.851562 23.945312 -27.703125 21.40625 -27.703125 C 18.976562 -27.703125 17.050781 -26.828125 15.625 -25.078125 C 14.207031 -23.335938 13.5 -20.703125 13.5 -17.171875 C 13.5 -13.640625 14.207031 -11.003906 15.625 -9.265625 C 17.050781 -7.535156 18.976562 -6.671875 21.40625 -6.671875 Z M 21.40625 -6.671875 "/></g></g></g><g fill="#7ed957" fill-opacity="1"><g transform="translate(36.499291, 62.533242)"><g><path d="M 13.40625 0.65625 C 11.195312 0.65625 9.28125 0.25 7.65625 -0.5625 C 6.039062 -1.375 4.796875 -2.5625 3.921875 -4.125 C 3.054688 -5.695312 2.625 -7.582031 2.625 -9.78125 C 2.625 -11.820312 3.054688 -13.53125 3.921875 -14.90625 C 4.796875 -16.289062 6.144531 -17.425781 7.96875 -18.3125 C 9.800781 -19.195312 12.191406 -19.875 15.140625 -20.34375 C 17.203125 -20.675781 18.765625 -21.039062 19.828125 -21.4375 C 20.898438 -21.832031 21.625 -22.28125 22 -22.78125 C 22.375 -23.28125 22.5625 -23.914062 22.5625 -24.6875 C 22.5625 -25.78125 22.175781 -26.617188 21.40625 -27.203125 C 20.644531 -27.785156 19.367188 -28.078125 17.578125 -28.078125 C 15.660156 -28.078125 13.835938 -27.648438 12.109375 -26.796875 C 10.390625 -25.953125 8.898438 -24.832031 7.640625 -23.4375 L 7.015625 -23.4375 L 3.390625 -28.890625 C 5.140625 -30.828125 7.269531 -32.332031 9.78125 -33.40625 C 12.300781 -34.488281 15.046875 -35.03125 18.015625 -35.03125 C 22.566406 -35.03125 25.859375 -34.0625 27.890625 -32.125 C 29.929688 -30.195312 30.953125 -27.457031 30.953125 -23.90625 L 30.953125 -8.96875 C 30.953125 -7.4375 31.625 -6.671875 32.96875 -6.671875 C 33.488281 -6.671875 34 -6.765625 34.5 -6.953125 L 34.9375 -6.828125 L 35.5625 -0.8125 C 35.082031 -0.5 34.414062 -0.242188 33.5625 -0.046875 C 32.707031 0.148438 31.773438 0.25 30.765625 0.25 C 28.703125 0.25 27.09375 -0.144531 25.9375 -0.9375 C 24.789062 -1.726562 23.96875 -2.960938 23.46875 -4.640625 L 22.8125 -4.703125 C 21.132812 -1.128906 18 0.65625 13.40625 0.65625 Z M 16.140625 -5.796875 C 18.140625 -5.796875 19.734375 -6.460938 20.921875 -7.796875 C 22.117188 -9.140625 22.71875 -11.007812 22.71875 -13.40625 L 22.71875 -16.890625 L 22.125 -17.015625 C 21.601562 -16.597656 20.921875 -16.25 20.078125 -15.96875 C 19.242188 -15.6875 18.035156 -15.410156 16.453125 -15.140625 C 14.585938 -14.828125 13.242188 -14.289062 12.421875 -13.53125 C 11.597656 -12.78125 11.1875 -11.707031 11.1875 -10.3125 C 11.1875 -8.84375 11.625 -7.722656 12.5 -6.953125 C 13.375 -6.179688 14.585938 -5.796875 16.140625 -5.796875 Z M 16.140625 -5.796875 "/></g></g></g></svg>