<svg width="88" height="102" viewBox="0 0 88 102" fill="none" xmlns="http://www.w3.org/2000/svg">
<path d="M48.5046 71.0029C46.9715 72.9327 43.8624 71.8767 43.8249 69.4109L43.2835 33.3616H67.5236C71.9139 33.3616 74.3636 38.4326 71.6351 41.8687L48.5046 71.0029Z" fill="url(#paint0_linear_46_214)"/>
<path d="M48.5046 71.0029C46.9715 72.9327 43.8624 71.8767 43.8249 69.4109L43.2835 33.3616H67.5236C71.9139 33.3616 74.3636 38.4326 71.6351 41.8687L48.5046 71.0029Z" fill="url(#paint1_linear_46_214)" fill-opacity="0.2"/>
<path d="M38.6463 12.997C40.1794 11.0672 43.2885 12.1232 43.326 14.5891L43.5619 50.6384H19.6273C15.237 50.6384 12.7873 45.5673 15.5158 42.1313L38.6463 12.997Z" fill="white"/>
<path d="M7.63413 97.112C6.81279 97.112 6.07679 96.9787 5.42613 96.712C4.77546 96.4453 4.25279 96.0507 3.85813 95.528C3.47413 95.0053 3.27146 94.376 3.25013 93.64H6.16213C6.20479 94.056 6.34879 94.376 6.59413 94.6C6.83946 94.8133 7.15946 94.92 7.55413 94.92C7.95946 94.92 8.27946 94.8293 8.51413 94.648C8.74879 94.456 8.86613 94.1947 8.86613 93.864C8.86613 93.5867 8.77013 93.3573 8.57813 93.176C8.39679 92.9947 8.16746 92.8453 7.89013 92.728C7.62346 92.6107 7.23946 92.4773 6.73813 92.328C6.01279 92.104 5.42079 91.88 4.96213 91.656C4.50346 91.432 4.10879 91.1013 3.77813 90.664C3.44746 90.2267 3.28213 89.656 3.28213 88.952C3.28213 87.9067 3.66079 87.0907 4.41813 86.504C5.17546 85.9067 6.16213 85.608 7.37813 85.608C8.61546 85.608 9.61279 85.9067 10.3701 86.504C11.1275 87.0907 11.5328 87.912 11.5861 88.968H8.62613C8.60479 88.6053 8.47146 88.3227 8.22613 88.12C7.98079 87.9067 7.66613 87.8 7.28212 87.8C6.95146 87.8 6.68479 87.8907 6.48213 88.072C6.27946 88.2427 6.17813 88.4933 6.17813 88.824C6.17813 89.1867 6.34879 89.4693 6.69012 89.672C7.03146 89.8747 7.56479 90.0933 8.29013 90.328C9.01546 90.5733 9.60213 90.808 10.0501 91.032C10.5088 91.256 10.9035 91.5813 11.2341 92.008C11.5648 92.4347 11.7301 92.984 11.7301 93.656C11.7301 94.296 11.5648 94.8773 11.2341 95.4C10.9141 95.9227 10.4448 96.3387 9.82613 96.648C9.20746 96.9573 8.47679 97.112 7.63413 97.112ZM22.2299 88.072V97H19.4939V95.784C19.2165 96.1787 18.8379 96.4987 18.3579 96.744C17.8885 96.9787 17.3659 97.096 16.7899 97.096C16.1072 97.096 15.5045 96.9467 14.9819 96.648C14.4592 96.3387 14.0539 95.896 13.7659 95.32C13.4779 94.744 13.3339 94.0667 13.3339 93.288V88.072H16.0539V92.92C16.0539 93.5173 16.2085 93.9813 16.5179 94.312C16.8272 94.6427 17.2432 94.808 17.7659 94.808C18.2992 94.808 18.7205 94.6427 19.0299 94.312C19.3392 93.9813 19.4939 93.5173 19.4939 92.92V88.072H22.2299ZM26.9311 89.336C27.1978 88.92 27.5658 88.584 28.0351 88.328C28.5045 88.072 29.0538 87.944 29.6831 87.944C30.4191 87.944 31.0858 88.1307 31.6831 88.504C32.2805 88.8773 32.7498 89.4107 33.0911 90.104C33.4431 90.7973 33.6191 91.6027 33.6191 92.52C33.6191 93.4373 33.4431 94.248 33.0911 94.952C32.7498 95.6453 32.2805 96.184 31.6831 96.568C31.0858 96.9413 30.4191 97.128 29.6831 97.128C29.0645 97.128 28.5151 97 28.0351 96.744C27.5658 96.488 27.1978 96.1573 26.9311 95.752V101.256H24.1951V88.072H26.9311V89.336ZM30.8351 92.52C30.8351 91.8373 30.6431 91.304 30.2591 90.92C29.8858 90.5253 29.4218 90.328 28.8671 90.328C28.3231 90.328 27.8591 90.5253 27.4751 90.92C27.1018 91.3147 26.9151 91.8533 26.9151 92.536C26.9151 93.2187 27.1018 93.7573 27.4751 94.152C27.8591 94.5467 28.3231 94.744 28.8671 94.744C29.4111 94.744 29.8751 94.5467 30.2591 94.152C30.6431 93.7467 30.8351 93.2027 30.8351 92.52ZM34.5105 92.52C34.5105 91.6027 34.6812 90.7973 35.0225 90.104C35.3745 89.4107 35.8492 88.8773 36.4465 88.504C37.0438 88.1307 37.7105 87.944 38.4465 87.944C39.0758 87.944 39.6252 88.072 40.0945 88.328C40.5745 88.584 40.9425 88.92 41.1985 89.336V88.072H43.9345V97H41.1985V95.736C40.9318 96.152 40.5585 96.488 40.0785 96.744C39.6092 97 39.0598 97.128 38.4305 97.128C37.7052 97.128 37.0438 96.9413 36.4465 96.568C35.8492 96.184 35.3745 95.6453 35.0225 94.952C34.6812 94.248 34.5105 93.4373 34.5105 92.52ZM41.1985 92.536C41.1985 91.8533 41.0065 91.3147 40.6225 90.92C40.2492 90.5253 39.7905 90.328 39.2465 90.328C38.7025 90.328 38.2385 90.5253 37.8545 90.92C37.4812 91.304 37.2945 91.8373 37.2945 92.52C37.2945 93.2027 37.4812 93.7467 37.8545 94.152C38.2385 94.5467 38.7025 94.744 39.2465 94.744C39.7905 94.744 40.2492 94.5467 40.6225 94.152C41.0065 93.7573 41.1985 93.2187 41.1985 92.536ZM48.6499 89.336C48.9059 88.92 49.2739 88.584 49.7539 88.328C50.2339 88.072 50.7832 87.944 51.4019 87.944C52.1379 87.944 52.8045 88.1307 53.4019 88.504C53.9992 88.8773 54.4685 89.4107 54.8099 90.104C55.1619 90.7973 55.3379 91.6027 55.3379 92.52C55.3379 93.4373 55.1619 94.248 54.8099 94.952C54.4685 95.6453 53.9992 96.184 53.4019 96.568C52.8045 96.9413 52.1379 97.128 51.4019 97.128C50.7725 97.128 50.2232 97.0053 49.7539 96.76C49.2845 96.504 48.9165 96.168 48.6499 95.752V97H45.9139V85.16H48.6499V89.336ZM52.5539 92.52C52.5539 91.8373 52.3619 91.304 51.9779 90.92C51.6045 90.5253 51.1405 90.328 50.5859 90.328C50.0419 90.328 49.5779 90.5253 49.1939 90.92C48.8205 91.3147 48.6339 91.8533 48.6339 92.536C48.6339 93.2187 48.8205 93.7573 49.1939 94.152C49.5779 94.5467 50.0419 94.744 50.5859 94.744C51.1299 94.744 51.5939 94.5467 51.9779 94.152C52.3619 93.7467 52.5539 93.2027 52.5539 92.52ZM56.2293 92.52C56.2293 91.6027 56.3999 90.7973 56.7413 90.104C57.0933 89.4107 57.5679 88.8773 58.1653 88.504C58.7626 88.1307 59.4293 87.944 60.1653 87.944C60.7946 87.944 61.3439 88.072 61.8133 88.328C62.2933 88.584 62.6613 88.92 62.9173 89.336V88.072H65.6533V97H62.9173V95.736C62.6506 96.152 62.2773 96.488 61.7973 96.744C61.3279 97 60.7786 97.128 60.1493 97.128C59.4239 97.128 58.7626 96.9413 58.1653 96.568C57.5679 96.184 57.0933 95.6453 56.7413 94.952C56.3999 94.248 56.2293 93.4373 56.2293 92.52ZM62.9173 92.536C62.9173 91.8533 62.7253 91.3147 62.3413 90.92C61.9679 90.5253 61.5093 90.328 60.9653 90.328C60.4213 90.328 59.9573 90.5253 59.5733 90.92C59.1999 91.304 59.0133 91.8373 59.0133 92.52C59.0133 93.2027 59.1999 93.7467 59.5733 94.152C59.9573 94.5467 60.4213 94.744 60.9653 94.744C61.5093 94.744 61.9679 94.5467 62.3413 94.152C62.7253 93.7573 62.9173 93.2187 62.9173 92.536ZM71.2646 97.128C70.486 97.128 69.7926 96.9947 69.1846 96.728C68.5766 96.4613 68.0966 96.0987 67.7446 95.64C67.3926 95.1707 67.1953 94.648 67.1526 94.072H69.8566C69.8886 94.3813 70.0326 94.632 70.2886 94.824C70.5446 95.016 70.8593 95.112 71.2326 95.112C71.574 95.112 71.8353 95.048 72.0166 94.92C72.2086 94.7813 72.3046 94.6053 72.3046 94.392C72.3046 94.136 72.1713 93.9493 71.9046 93.832C71.638 93.704 71.206 93.5653 70.6086 93.416C69.9686 93.2667 69.4353 93.112 69.0086 92.952C68.582 92.7813 68.214 92.52 67.9046 92.168C67.5953 91.8053 67.4406 91.32 67.4406 90.712C67.4406 90.2 67.5793 89.736 67.8566 89.32C68.1446 88.8933 68.5606 88.5573 69.1046 88.312C69.6593 88.0667 70.3153 87.944 71.0726 87.944C72.1926 87.944 73.0726 88.2213 73.7126 88.776C74.3633 89.3307 74.7366 90.0667 74.8326 90.984H72.3046C72.262 90.6747 72.1233 90.4293 71.8886 90.248C71.6646 90.0667 71.366 89.976 70.9926 89.976C70.6726 89.976 70.4273 90.04 70.2566 90.168C70.086 90.2853 70.0006 90.4507 70.0006 90.664C70.0006 90.92 70.134 91.112 70.4006 91.24C70.678 91.368 71.1046 91.496 71.6806 91.624C72.342 91.7947 72.8806 91.9653 73.2966 92.136C73.7126 92.296 74.0753 92.5627 74.3846 92.936C74.7046 93.2987 74.87 93.7893 74.8806 94.408C74.8806 94.9307 74.7313 95.4 74.4326 95.816C74.1446 96.2213 73.7233 96.5413 73.1686 96.776C72.6246 97.0107 71.99 97.128 71.2646 97.128ZM84.9705 92.392C84.9705 92.648 84.9545 92.9147 84.9225 93.192H78.7305C78.7732 93.7467 78.9492 94.1733 79.2585 94.472C79.5785 94.76 79.9678 94.904 80.4265 94.904C81.1092 94.904 81.5838 94.616 81.8505 94.04H84.7625C84.6132 94.6267 84.3412 95.1547 83.9465 95.624C83.5625 96.0933 83.0772 96.4613 82.4905 96.728C81.9038 96.9947 81.2478 97.128 80.5225 97.128C79.6478 97.128 78.8692 96.9413 78.1865 96.568C77.5038 96.1947 76.9705 95.6613 76.5865 94.968C76.2025 94.2747 76.0105 93.464 76.0105 92.536C76.0105 91.608 76.1972 90.7973 76.5705 90.104C76.9545 89.4107 77.4878 88.8773 78.1705 88.504C78.8532 88.1307 79.6372 87.944 80.5225 87.944C81.3865 87.944 82.1545 88.1253 82.8265 88.488C83.4985 88.8507 84.0212 89.368 84.3945 90.04C84.7785 90.712 84.9705 91.496 84.9705 92.392ZM82.1705 91.672C82.1705 91.2027 82.0105 90.8293 81.6905 90.552C81.3705 90.2747 80.9705 90.136 80.4905 90.136C80.0318 90.136 79.6425 90.2693 79.3225 90.536C79.0132 90.8027 78.8212 91.1813 78.7465 91.672H82.1705Z" fill="white"/>
<defs>
<linearGradient id="paint0_linear_46_214" x1="41.343" y1="46.0016" x2="62.8868" y2="55.034" gradientUnits="userSpaceOnUse">
<stop stop-color="#CCCECE"/>
<stop offset="1" stop-color="white"/>
</linearGradient>
<linearGradient id="paint1_linear_46_214" x1="42.3722" y1="23.6912" x2="52.198" y2="42.1849" gradientUnits="userSpaceOnUse">
<stop/>
<stop offset="1" stop-opacity="0"/>
</linearGradient>
</defs>
</svg>
