<svg width="36" height="50" viewBox="0 0 36 50" fill="none" xmlns="http://www.w3.org/2000/svg">
<g clip-path="url(#clip0_105102_3283)">
<path d="M17.993 18.4443C19.5675 18.4443 20.8439 17.1674 20.8439 15.5922C20.8439 14.017 19.5675 12.74 17.993 12.74C16.4185 12.74 15.1421 14.017 15.1421 15.5922C15.1421 17.1674 16.4185 18.4443 17.993 18.4443Z" fill="#61DAFB"/>
<path d="M33.9861 15.5921C33.9861 13.3521 31.3577 11.4043 27.269 10.2356C28.2981 6.1034 27.9365 2.84775 25.9896 1.7347C24.0426 0.607748 21.0526 1.92949 17.993 4.87905C14.9335 1.91557 11.9435 0.607748 9.99652 1.7347C8.38331 2.66688 7.78531 5.0321 8.32768 8.39905C8.42503 8.99731 8.5641 9.60949 8.71708 10.2495C4.62842 11.4182 2 13.366 2 15.606C2 17.846 4.62842 19.7799 8.71708 20.9625C8.5641 21.5886 8.42503 22.2147 8.32768 22.813C7.78531 26.1799 8.38331 28.5451 9.99652 29.4773C10.4694 29.7556 11.0117 29.8947 11.6097 29.8947C13.0282 29.8947 14.7388 29.1156 16.6023 27.5991C17.0613 27.2234 17.5341 26.7921 17.993 26.3469C18.452 26.7921 18.9248 27.2234 19.3837 27.5991C21.2473 29.1156 22.9578 29.8947 24.3764 29.8947C24.9744 29.8947 25.5167 29.7556 25.9896 29.4773C27.6028 28.5451 28.2008 26.1799 27.6723 22.813C27.575 22.2147 27.4359 21.6025 27.2829 20.9625C31.3716 19.7938 34 17.846 34 15.606L33.9861 15.5921ZM25.2942 2.93123C26.5458 3.6547 26.824 6.29818 25.92 9.88775C24.6128 9.58166 23.1804 9.35905 21.6645 9.21992C20.7884 7.98166 19.8705 6.8547 18.9665 5.86688C21.0804 3.82166 23.0413 2.70862 24.3903 2.70862C24.7379 2.70862 25.0439 2.77818 25.3081 2.93123H25.2942ZM22.4572 18.166C21.9565 19.0147 21.442 19.8495 20.9135 20.6286C19.9817 20.6982 19.0083 20.7399 18.007 20.7399C17.0056 20.7399 16.0322 20.6982 15.1004 20.6286C14.5719 19.8495 14.0435 19.0147 13.5567 18.166C13.0561 17.3034 12.611 16.4547 12.1938 15.5921C12.611 14.7295 13.0561 13.8808 13.5567 13.0182C14.0574 12.1417 14.5858 11.3208 15.1004 10.5556C16.0322 10.486 17.0056 10.4443 18.007 10.4443C19.0083 10.4443 19.9817 10.486 20.9135 10.5556C21.442 11.3208 21.9565 12.1417 22.4572 13.0182C22.9439 13.8669 23.4029 14.7295 23.8201 15.5921C23.4168 16.4408 22.9718 17.2895 22.4572 18.166ZM24.5432 17.2199C24.9326 18.1521 25.2664 19.0564 25.5445 19.9469C24.6545 20.1417 23.6949 20.3225 22.6797 20.4477C23.0135 19.933 23.3333 19.4043 23.6532 18.8617C23.9731 18.3191 24.2651 17.7625 24.5432 17.2199ZM17.993 24.3156C17.3672 23.6338 16.7414 22.8825 16.1295 22.0756C16.7414 22.1034 17.3533 22.1173 17.993 22.1173C18.6328 22.1173 19.2447 22.1034 19.8566 22.0756C19.2447 22.8825 18.6189 23.6199 17.993 24.3156ZM13.3064 20.4477C12.2912 20.3225 11.3316 20.1556 10.4415 19.9469C10.7197 19.0564 11.0535 18.1521 11.4429 17.2199C11.721 17.7625 12.013 18.3191 12.3329 18.8617C12.6528 19.4043 12.9726 19.933 13.3064 20.4477ZM11.4429 13.9504C11.0535 13.0182 10.7197 12.1138 10.4415 11.2234C11.3316 11.0286 12.2912 10.8477 13.3064 10.7225C12.9726 11.2373 12.6528 11.766 12.3329 12.3086C12.013 12.8512 11.721 13.3938 11.4429 13.9504ZM17.993 6.8547C18.605 7.52253 19.2308 8.27383 19.8566 9.0947C19.2447 9.06688 18.6328 9.05297 17.993 9.05297C17.3533 9.05297 16.7414 9.06688 16.1295 9.0947C16.7553 8.27383 17.3672 7.52253 17.993 6.8547ZM23.6532 12.3225C23.3333 11.7799 23.0135 11.2512 22.6797 10.7364C23.6949 10.8617 24.6545 11.0286 25.5445 11.2373C25.2803 12.1138 24.9465 13.0182 24.5432 13.9643C24.2651 13.4217 23.9591 12.8651 23.6532 12.3225ZM9.69057 8.17644C9.25945 5.4634 9.62103 3.55731 10.6919 2.94514C10.9561 2.7921 11.2621 2.72253 11.6097 2.72253C12.9587 2.72253 14.9196 3.83557 17.0335 5.88079C16.1156 6.86862 15.2116 7.99557 14.3355 9.23383C12.8196 9.37296 11.3872 9.59557 10.08 9.90166C9.92699 9.31731 9.80183 8.73296 9.71838 8.19036L9.69057 8.17644ZM3.3907 15.5921C3.3907 14.1451 5.53238 12.5869 9.09257 11.5712C9.49587 12.8651 10.0243 14.2147 10.6502 15.5921C10.0243 16.9556 9.49587 18.3051 9.09257 19.613C5.54628 18.5973 3.3907 17.053 3.3907 15.5921ZM15.7262 26.486C13.5984 28.2112 11.7627 28.8512 10.6919 28.2391C9.62103 27.6269 9.25945 25.7069 9.69057 23.0077C9.77401 22.4512 9.91308 21.8808 10.0522 21.2964C11.3594 21.6025 12.7918 21.8251 14.3077 21.9643C15.1838 23.1886 16.0878 24.3295 17.0056 25.3312C16.5745 25.7486 16.1434 26.1521 15.7123 26.4999L15.7262 26.486ZM26.2955 23.0077C26.7266 25.7208 26.3651 27.6269 25.2942 28.2391C24.2234 28.8512 22.3877 28.2112 20.2599 26.486C19.8288 26.1382 19.3977 25.7347 18.9665 25.3173C19.8983 24.3156 20.8023 23.1886 21.6645 21.9643C23.1804 21.8251 24.6128 21.6025 25.92 21.2964C26.073 21.8808 26.1982 22.4651 26.2816 23.0077H26.2955ZM26.8935 19.5991C26.4902 18.3051 25.9618 16.9556 25.3359 15.5782C25.9757 14.1869 26.4902 12.8373 26.8935 11.5573C30.4537 12.573 32.5954 14.1173 32.5954 15.5782C32.5954 17.0391 30.4537 18.5834 26.8935 19.5991Z" fill="#61DAFB"/>
</g>
<path d="M5.28609 48L3.53409 44.82H3.04209V48H0.990094V39.576H4.43409C5.09809 39.576 5.66209 39.692 6.12609 39.924C6.59809 40.156 6.95009 40.476 7.18209 40.884C7.41409 41.284 7.53009 41.732 7.53009 42.228C7.53009 42.788 7.37009 43.288 7.05009 43.728C6.73809 44.168 6.27409 44.48 5.65809 44.664L7.60209 48H5.28609ZM3.04209 43.368H4.31409C4.69009 43.368 4.97009 43.276 5.15409 43.092C5.34609 42.908 5.44209 42.648 5.44209 42.312C5.44209 41.992 5.34609 41.74 5.15409 41.556C4.97009 41.372 4.69009 41.28 4.31409 41.28H3.04209V43.368ZM15.1302 44.544C15.1302 44.736 15.1182 44.936 15.0942 45.144H10.4502C10.4822 45.56 10.6142 45.88 10.8462 46.104C11.0862 46.32 11.3782 46.428 11.7222 46.428C12.2342 46.428 12.5902 46.212 12.7902 45.78H14.9742C14.8622 46.22 14.6582 46.616 14.3622 46.968C14.0742 47.32 13.7102 47.596 13.2702 47.796C12.8302 47.996 12.3382 48.096 11.7942 48.096C11.1382 48.096 10.5542 47.956 10.0422 47.676C9.53022 47.396 9.13022 46.996 8.84222 46.476C8.55422 45.956 8.41022 45.348 8.41022 44.652C8.41022 43.956 8.55022 43.348 8.83022 42.828C9.11822 42.308 9.51822 41.908 10.0302 41.628C10.5422 41.348 11.1302 41.208 11.7942 41.208C12.4422 41.208 13.0182 41.344 13.5222 41.616C14.0262 41.888 14.4182 42.276 14.6982 42.78C14.9862 43.284 15.1302 43.872 15.1302 44.544ZM13.0302 44.004C13.0302 43.652 12.9102 43.372 12.6702 43.164C12.4302 42.956 12.1302 42.852 11.7702 42.852C11.4262 42.852 11.1342 42.952 10.8942 43.152C10.6622 43.352 10.5182 43.636 10.4622 44.004H13.0302ZM15.8048 44.64C15.8048 43.952 15.9328 43.348 16.1888 42.828C16.4528 42.308 16.8088 41.908 17.2568 41.628C17.7048 41.348 18.2048 41.208 18.7568 41.208C19.2288 41.208 19.6408 41.304 19.9928 41.496C20.3528 41.688 20.6288 41.94 20.8208 42.252V41.304H22.8728V48H20.8208V47.052C20.6208 47.364 20.3408 47.616 19.9808 47.808C19.6288 48 19.2168 48.096 18.7448 48.096C18.2008 48.096 17.7048 47.956 17.2568 47.676C16.8088 47.388 16.4528 46.984 16.1888 46.464C15.9328 45.936 15.8048 45.328 15.8048 44.64ZM20.8208 44.652C20.8208 44.14 20.6768 43.736 20.3888 43.44C20.1088 43.144 19.7648 42.996 19.3568 42.996C18.9488 42.996 18.6008 43.144 18.3128 43.44C18.0328 43.728 17.8928 44.128 17.8928 44.64C17.8928 45.152 18.0328 45.56 18.3128 45.864C18.6008 46.16 18.9488 46.308 19.3568 46.308C19.7648 46.308 20.1088 46.16 20.3888 45.864C20.6768 45.568 20.8208 45.164 20.8208 44.652ZM23.9493 44.652C23.9493 43.956 24.0893 43.348 24.3693 42.828C24.6573 42.308 25.0533 41.908 25.5573 41.628C26.0693 41.348 26.6533 41.208 27.3093 41.208C28.1493 41.208 28.8493 41.428 29.4093 41.868C29.9773 42.308 30.3493 42.928 30.5253 43.728H28.3413C28.1573 43.216 27.8013 42.96 27.2733 42.96C26.8973 42.96 26.5973 43.108 26.3733 43.404C26.1493 43.692 26.0373 44.108 26.0373 44.652C26.0373 45.196 26.1493 45.616 26.3733 45.912C26.5973 46.2 26.8973 46.344 27.2733 46.344C27.8013 46.344 28.1573 46.088 28.3413 45.576H30.5253C30.3493 46.36 29.9773 46.976 29.4093 47.424C28.8413 47.872 28.1413 48.096 27.3093 48.096C26.6533 48.096 26.0693 47.956 25.5573 47.676C25.0533 47.396 24.6573 46.996 24.3693 46.476C24.0893 45.956 23.9493 45.348 23.9493 44.652ZM35.3549 46.26V48H34.3109C33.5669 48 32.9869 47.82 32.5709 47.46C32.1549 47.092 31.9469 46.496 31.9469 45.672V43.008H31.1309V41.304H31.9469V39.672H33.9989V41.304H35.3429V43.008H33.9989V45.696C33.9989 45.896 34.0469 46.04 34.1429 46.128C34.2389 46.216 34.3989 46.26 34.6229 46.26H35.3549Z" fill="black"/>
<defs>
<clipPath id="clip0_105102_3283">
<rect width="32" height="32" fill="white" transform="translate(2)"/>
</clipPath>
</defs>
</svg>
