<svg width="38" height="52" viewBox="0 0 38 52" fill="none" xmlns="http://www.w3.org/2000/svg">
<g clip-path="url(#clip0_105102_3289)">
<path d="M22.6951 2.66675L19.0006 9.06675L15.3049 2.66675H3L19.0006 30.3805L35 2.66675H22.6951Z" fill="#41B883"/>
<path d="M22.6952 2.66675L19.0007 9.06675L15.3049 2.66675H9.40007L19.0007 19.2945L28.6001 2.66675H22.6952Z" fill="#34495E"/>
</g>
<path d="M8.72622 39.576L5.73822 48H3.17022L0.182219 39.576H2.36622L4.45422 45.936L6.55422 39.576H8.72622ZM16.1958 41.304V48H14.1438V47.088C13.9358 47.384 13.6518 47.624 13.2918 47.808C12.9398 47.984 12.5478 48.072 12.1158 48.072C11.6038 48.072 11.1518 47.96 10.7598 47.736C10.3678 47.504 10.0638 47.172 9.84784 46.74C9.63184 46.308 9.52384 45.8 9.52384 45.216V41.304H11.5638V44.94C11.5638 45.388 11.6798 45.736 11.9118 45.984C12.1438 46.232 12.4558 46.356 12.8478 46.356C13.2478 46.356 13.5638 46.232 13.7958 45.984C14.0278 45.736 14.1438 45.388 14.1438 44.94V41.304H16.1958ZM23.9818 44.544C23.9818 44.736 23.9698 44.936 23.9458 45.144H19.3018C19.3338 45.56 19.4658 45.88 19.6978 46.104C19.9378 46.32 20.2298 46.428 20.5738 46.428C21.0858 46.428 21.4418 46.212 21.6418 45.78H23.8258C23.7138 46.22 23.5098 46.616 23.2138 46.968C22.9258 47.32 22.5618 47.596 22.1218 47.796C21.6818 47.996 21.1898 48.096 20.6458 48.096C19.9898 48.096 19.4058 47.956 18.8938 47.676C18.3818 47.396 17.9818 46.996 17.6938 46.476C17.4058 45.956 17.2618 45.348 17.2618 44.652C17.2618 43.956 17.4018 43.348 17.6818 42.828C17.9698 42.308 18.3698 41.908 18.8818 41.628C19.3938 41.348 19.9818 41.208 20.6458 41.208C21.2938 41.208 21.8698 41.344 22.3738 41.616C22.8778 41.888 23.2698 42.276 23.5498 42.78C23.8378 43.284 23.9818 43.872 23.9818 44.544ZM21.8818 44.004C21.8818 43.652 21.7618 43.372 21.5218 43.164C21.2818 42.956 20.9818 42.852 20.6218 42.852C20.2778 42.852 19.9858 42.952 19.7458 43.152C19.5138 43.352 19.3698 43.636 19.3138 44.004H21.8818ZM26.0243 48.096C25.6643 48.096 25.3683 47.992 25.1363 47.784C24.9123 47.568 24.8003 47.304 24.8003 46.992C24.8003 46.672 24.9123 46.404 25.1363 46.188C25.3683 45.972 25.6643 45.864 26.0243 45.864C26.3763 45.864 26.6643 45.972 26.8883 46.188C27.1203 46.404 27.2363 46.672 27.2363 46.992C27.2363 47.304 27.1203 47.568 26.8883 47.784C26.6643 47.992 26.3763 48.096 26.0243 48.096ZM29.471 40.608C29.111 40.608 28.815 40.504 28.583 40.296C28.359 40.08 28.247 39.816 28.247 39.504C28.247 39.184 28.359 38.92 28.583 38.712C28.815 38.496 29.111 38.388 29.471 38.388C29.823 38.388 30.111 38.496 30.335 38.712C30.567 38.92 30.683 39.184 30.683 39.504C30.683 39.816 30.567 40.08 30.335 40.296C30.111 40.504 29.823 40.608 29.471 40.608ZM30.503 48.864C30.503 49.688 30.295 50.28 29.879 50.64C29.463 51.008 28.883 51.192 28.139 51.192H27.335V49.452H27.827C28.051 49.452 28.211 49.408 28.307 49.32C28.403 49.232 28.451 49.088 28.451 48.888V41.304H30.503V48.864ZM34.7024 48.096C34.1184 48.096 33.5984 47.996 33.1424 47.796C32.6864 47.596 32.3264 47.324 32.0624 46.98C31.7984 46.628 31.6504 46.236 31.6184 45.804H33.6464C33.6704 46.036 33.7784 46.224 33.9704 46.368C34.1624 46.512 34.3984 46.584 34.6784 46.584C34.9344 46.584 35.1304 46.536 35.2664 46.44C35.4104 46.336 35.4824 46.204 35.4824 46.044C35.4824 45.852 35.3824 45.712 35.1824 45.624C34.9824 45.528 34.6584 45.424 34.2104 45.312C33.7304 45.2 33.3304 45.084 33.0104 44.964C32.6904 44.836 32.4144 44.64 32.1824 44.376C31.9504 44.104 31.8344 43.74 31.8344 43.284C31.8344 42.9 31.9384 42.552 32.1464 42.24C32.3624 41.92 32.6744 41.668 33.0824 41.484C33.4984 41.3 33.9904 41.208 34.5584 41.208C35.3984 41.208 36.0584 41.416 36.5384 41.832C37.0264 42.248 37.3064 42.8 37.3784 43.488H35.4824C35.4504 43.256 35.3464 43.072 35.1704 42.936C35.0024 42.8 34.7784 42.732 34.4984 42.732C34.2584 42.732 34.0744 42.78 33.9464 42.876C33.8184 42.964 33.7544 43.088 33.7544 43.248C33.7544 43.44 33.8544 43.584 34.0544 43.68C34.2624 43.776 34.5824 43.872 35.0144 43.968C35.5104 44.096 35.9144 44.224 36.2264 44.352C36.5384 44.472 36.8104 44.672 37.0424 44.952C37.2824 45.224 37.4064 45.592 37.4144 46.056C37.4144 46.448 37.3024 46.8 37.0784 47.112C36.8624 47.416 36.5464 47.656 36.1304 47.832C35.7224 48.008 35.2464 48.096 34.7024 48.096Z" fill="black"/>
<defs>
<clipPath id="clip0_105102_3289">
<rect width="32" height="32" fill="white" transform="translate(3)"/>
</clipPath>
</defs>
</svg>
